<mxfile host="app.diagrams.net" modified="2024-04-16T16:55:26.607Z" agent="Mozilla/5.0 (Windows NT 10.0; Win64; x64) AppleWebKit/537.36 (KHTML, like Gecko) Chrome/121.0.0.0 Safari/537.36 OPR/107.0.0.0" etag="_Zg1KrOxIiuYl15eCHwz" version="24.2.5" type="github">
  <diagram name="Page-1" id="5d7acffa-a066-3a61-03fe-96351882024d">
    <mxGraphModel dx="1393" dy="1647" grid="1" gridSize="10" guides="1" tooltips="1" connect="1" arrows="1" fold="1" page="1" pageScale="1" pageWidth="1100" pageHeight="850" background="#ffffff" math="0" shadow="0">
      <root>
        <mxCell id="0" />
        <mxCell id="1" parent="0" />
        <mxCell id="MhDVs0-bsi89xH2X399K-1" value="" style="rounded=0;html=1;jettySize=auto;orthogonalLoop=1;fontSize=11;endArrow=block;endFill=0;endSize=8;strokeWidth=1;shadow=0;labelBackgroundColor=none;edgeStyle=orthogonalEdgeStyle;" edge="1" parent="1" source="MhDVs0-bsi89xH2X399K-2" target="MhDVs0-bsi89xH2X399K-5">
          <mxGeometry relative="1" as="geometry" />
        </mxCell>
        <mxCell id="MhDVs0-bsi89xH2X399K-2" value="Ask Player Name" style="rounded=1;whiteSpace=wrap;html=1;fontSize=12;glass=0;strokeWidth=1;shadow=0;" vertex="1" parent="1">
          <mxGeometry x="20" y="20" width="120" height="40" as="geometry" />
        </mxCell>
        <mxCell id="MhDVs0-bsi89xH2X399K-3" value="Yes" style="rounded=0;html=1;jettySize=auto;orthogonalLoop=1;fontSize=11;endArrow=block;endFill=0;endSize=8;strokeWidth=1;shadow=0;labelBackgroundColor=none;edgeStyle=orthogonalEdgeStyle;" edge="1" parent="1" source="MhDVs0-bsi89xH2X399K-5" target="MhDVs0-bsi89xH2X399K-9">
          <mxGeometry y="20" relative="1" as="geometry">
            <mxPoint as="offset" />
          </mxGeometry>
        </mxCell>
        <mxCell id="MhDVs0-bsi89xH2X399K-4" value="No" style="edgeStyle=orthogonalEdgeStyle;rounded=0;html=1;jettySize=auto;orthogonalLoop=1;fontSize=11;endArrow=block;endFill=0;endSize=8;strokeWidth=1;shadow=0;labelBackgroundColor=none;" edge="1" parent="1" source="MhDVs0-bsi89xH2X399K-5" target="MhDVs0-bsi89xH2X399K-6">
          <mxGeometry y="10" relative="1" as="geometry">
            <mxPoint as="offset" />
          </mxGeometry>
        </mxCell>
        <mxCell id="MhDVs0-bsi89xH2X399K-5" value="Lamp&lt;br&gt;plugged in?" style="rhombus;whiteSpace=wrap;html=1;shadow=0;fontFamily=Helvetica;fontSize=12;align=center;strokeWidth=1;spacing=6;spacingTop=-4;" vertex="1" parent="1">
          <mxGeometry x="30" y="110" width="100" height="80" as="geometry" />
        </mxCell>
        <mxCell id="MhDVs0-bsi89xH2X399K-6" value="Plug in lamp" style="rounded=1;whiteSpace=wrap;html=1;fontSize=12;glass=0;strokeWidth=1;shadow=0;" vertex="1" parent="1">
          <mxGeometry x="180" y="130" width="120" height="40" as="geometry" />
        </mxCell>
        <mxCell id="MhDVs0-bsi89xH2X399K-7" value="No" style="rounded=0;html=1;jettySize=auto;orthogonalLoop=1;fontSize=11;endArrow=block;endFill=0;endSize=8;strokeWidth=1;shadow=0;labelBackgroundColor=none;edgeStyle=orthogonalEdgeStyle;" edge="1" parent="1" source="MhDVs0-bsi89xH2X399K-9" target="MhDVs0-bsi89xH2X399K-10">
          <mxGeometry x="0.3333" y="20" relative="1" as="geometry">
            <mxPoint as="offset" />
          </mxGeometry>
        </mxCell>
        <mxCell id="MhDVs0-bsi89xH2X399K-8" value="Yes" style="edgeStyle=orthogonalEdgeStyle;rounded=0;html=1;jettySize=auto;orthogonalLoop=1;fontSize=11;endArrow=block;endFill=0;endSize=8;strokeWidth=1;shadow=0;labelBackgroundColor=none;" edge="1" parent="1" source="MhDVs0-bsi89xH2X399K-9" target="MhDVs0-bsi89xH2X399K-11">
          <mxGeometry y="10" relative="1" as="geometry">
            <mxPoint as="offset" />
          </mxGeometry>
        </mxCell>
        <mxCell id="MhDVs0-bsi89xH2X399K-9" value="Bulb&lt;br&gt;burned out?" style="rhombus;whiteSpace=wrap;html=1;shadow=0;fontFamily=Helvetica;fontSize=12;align=center;strokeWidth=1;spacing=6;spacingTop=-4;" vertex="1" parent="1">
          <mxGeometry x="30" y="230" width="100" height="80" as="geometry" />
        </mxCell>
        <mxCell id="MhDVs0-bsi89xH2X399K-10" value="Repair Lamp" style="rounded=1;whiteSpace=wrap;html=1;fontSize=12;glass=0;strokeWidth=1;shadow=0;" vertex="1" parent="1">
          <mxGeometry x="20" y="370" width="120" height="40" as="geometry" />
        </mxCell>
        <mxCell id="MhDVs0-bsi89xH2X399K-11" value="Replace Bulb" style="rounded=1;whiteSpace=wrap;html=1;fontSize=12;glass=0;strokeWidth=1;shadow=0;" vertex="1" parent="1">
          <mxGeometry x="180" y="250" width="120" height="40" as="geometry" />
        </mxCell>
        <mxCell id="MhDVs0-bsi89xH2X399K-12" value="Object" style="html=1;rounded=0;shadow=0;comic=0;labelBackgroundColor=none;strokeWidth=2;fontFamily=Verdana;fontSize=12;align=center;shape=mxgraph.ios7ui.horLines;" vertex="1" parent="1">
          <mxGeometry x="392.5" y="366" width="135" height="50" as="geometry" />
        </mxCell>
        <mxCell id="MhDVs0-bsi89xH2X399K-13" value="Play_game" style="swimlane;html=1;fontStyle=0;childLayout=stackLayout;horizontal=1;startSize=26;fillColor=#e0e0e0;horizontalStack=0;resizeParent=1;resizeLast=0;collapsible=1;marginBottom=0;swimlaneFillColor=#ffffff;align=center;rounded=1;shadow=0;comic=0;labelBackgroundColor=none;strokeWidth=1;fontFamily=Verdana;fontSize=12" vertex="1" parent="1">
          <mxGeometry x="380" y="-70" width="280" height="180" as="geometry" />
        </mxCell>
        <mxCell id="MhDVs0-bsi89xH2X399K-14" value="generate_random_sequence(url,params)" style="text;html=1;strokeColor=none;fillColor=none;spacingLeft=4;spacingRight=4;whiteSpace=wrap;overflow=hidden;rotatable=0;points=[[0,0.5],[1,0.5]];portConstraint=eastwest;" vertex="1" parent="MhDVs0-bsi89xH2X399K-13">
          <mxGeometry y="26" width="280" height="26" as="geometry" />
        </mxCell>
        <mxCell id="MhDVs0-bsi89xH2X399K-15" value="evaluate_players_guess(guess,sequence)&lt;div&gt;&lt;br&gt;&lt;/div&gt;" style="text;html=1;strokeColor=none;fillColor=none;spacingLeft=4;spacingRight=4;whiteSpace=wrap;overflow=hidden;rotatable=0;points=[[0,0.5],[1,0.5]];portConstraint=eastwest;" vertex="1" parent="MhDVs0-bsi89xH2X399K-13">
          <mxGeometry y="52" width="280" height="26" as="geometry" />
        </mxCell>
        <mxCell id="MhDVs0-bsi89xH2X399K-17" value="Function" style="swimlane;html=1;fontStyle=0;childLayout=stackLayout;horizontal=1;startSize=26;fillColor=#e0e0e0;horizontalStack=0;resizeParent=1;resizeLast=0;collapsible=1;marginBottom=0;swimlaneFillColor=#ffffff;align=center;rounded=1;shadow=0;comic=0;labelBackgroundColor=none;strokeWidth=1;fontFamily=Verdana;fontSize=12" vertex="1" parent="1">
          <mxGeometry x="780" width="160" height="130" as="geometry" />
        </mxCell>
        <mxCell id="MhDVs0-bsi89xH2X399K-18" value="Row 1" style="text;html=1;strokeColor=none;fillColor=none;spacingLeft=4;spacingRight=4;whiteSpace=wrap;overflow=hidden;rotatable=0;points=[[0,0.5],[1,0.5]];portConstraint=eastwest;" vertex="1" parent="MhDVs0-bsi89xH2X399K-17">
          <mxGeometry y="26" width="160" height="26" as="geometry" />
        </mxCell>
        <mxCell id="MhDVs0-bsi89xH2X399K-19" value="Row 2" style="text;html=1;strokeColor=none;fillColor=none;spacingLeft=4;spacingRight=4;whiteSpace=wrap;overflow=hidden;rotatable=0;points=[[0,0.5],[1,0.5]];portConstraint=eastwest;" vertex="1" parent="MhDVs0-bsi89xH2X399K-17">
          <mxGeometry y="52" width="160" height="26" as="geometry" />
        </mxCell>
        <mxCell id="MhDVs0-bsi89xH2X399K-20" value="Row 3" style="text;html=1;strokeColor=none;fillColor=none;spacingLeft=4;spacingRight=4;whiteSpace=wrap;overflow=hidden;rotatable=0;points=[[0,0.5],[1,0.5]];portConstraint=eastwest;" vertex="1" parent="MhDVs0-bsi89xH2X399K-17">
          <mxGeometry y="78" width="160" height="26" as="geometry" />
        </mxCell>
        <mxCell id="MhDVs0-bsi89xH2X399K-21" value="Row 4" style="text;html=1;strokeColor=none;fillColor=none;spacingLeft=4;spacingRight=4;whiteSpace=wrap;overflow=hidden;rotatable=0;points=[[0,0.5],[1,0.5]];portConstraint=eastwest;" vertex="1" parent="MhDVs0-bsi89xH2X399K-17">
          <mxGeometry y="104" width="160" height="26" as="geometry" />
        </mxCell>
        <mxCell id="MhDVs0-bsi89xH2X399K-22" value="Function" style="swimlane;html=1;fontStyle=0;childLayout=stackLayout;horizontal=1;startSize=26;fillColor=#e0e0e0;horizontalStack=0;resizeParent=1;resizeLast=0;collapsible=1;marginBottom=0;swimlaneFillColor=#ffffff;align=center;rounded=1;shadow=0;comic=0;labelBackgroundColor=none;strokeWidth=1;fontFamily=Verdana;fontSize=12" vertex="1" parent="1">
          <mxGeometry x="380" y="192" width="160" height="110" as="geometry" />
        </mxCell>
        <mxCell id="MhDVs0-bsi89xH2X399K-23" value="Row 1" style="text;html=1;strokeColor=none;fillColor=none;spacingLeft=4;spacingRight=4;whiteSpace=wrap;overflow=hidden;rotatable=0;points=[[0,0.5],[1,0.5]];portConstraint=eastwest;" vertex="1" parent="MhDVs0-bsi89xH2X399K-22">
          <mxGeometry y="26" width="160" height="26" as="geometry" />
        </mxCell>
        <mxCell id="MhDVs0-bsi89xH2X399K-24" value="Row 2" style="text;html=1;strokeColor=none;fillColor=none;spacingLeft=4;spacingRight=4;whiteSpace=wrap;overflow=hidden;rotatable=0;points=[[0,0.5],[1,0.5]];portConstraint=eastwest;" vertex="1" parent="MhDVs0-bsi89xH2X399K-22">
          <mxGeometry y="52" width="160" height="26" as="geometry" />
        </mxCell>
        <mxCell id="MhDVs0-bsi89xH2X399K-25" value="Row 3" style="text;html=1;strokeColor=none;fillColor=none;spacingLeft=4;spacingRight=4;whiteSpace=wrap;overflow=hidden;rotatable=0;points=[[0,0.5],[1,0.5]];portConstraint=eastwest;" vertex="1" parent="MhDVs0-bsi89xH2X399K-22">
          <mxGeometry y="78" width="160" height="26" as="geometry" />
        </mxCell>
        <mxCell id="MhDVs0-bsi89xH2X399K-26" value="Function" style="swimlane;html=1;fontStyle=0;childLayout=stackLayout;horizontal=1;startSize=26;fillColor=#e0e0e0;horizontalStack=0;resizeParent=1;resizeLast=0;collapsible=1;marginBottom=0;swimlaneFillColor=#ffffff;align=center;rounded=1;shadow=0;comic=0;labelBackgroundColor=none;strokeWidth=1;fontFamily=Verdana;fontSize=12" vertex="1" parent="1">
          <mxGeometry x="380" y="496" width="160" height="140" as="geometry" />
        </mxCell>
        <mxCell id="MhDVs0-bsi89xH2X399K-27" value="Row 1" style="text;html=1;strokeColor=none;fillColor=none;spacingLeft=4;spacingRight=4;whiteSpace=wrap;overflow=hidden;rotatable=0;points=[[0,0.5],[1,0.5]];portConstraint=eastwest;" vertex="1" parent="MhDVs0-bsi89xH2X399K-26">
          <mxGeometry y="26" width="160" height="26" as="geometry" />
        </mxCell>
        <mxCell id="MhDVs0-bsi89xH2X399K-28" value="Row 2" style="text;html=1;strokeColor=none;fillColor=none;spacingLeft=4;spacingRight=4;whiteSpace=wrap;overflow=hidden;rotatable=0;points=[[0,0.5],[1,0.5]];portConstraint=eastwest;" vertex="1" parent="MhDVs0-bsi89xH2X399K-26">
          <mxGeometry y="52" width="160" height="26" as="geometry" />
        </mxCell>
        <mxCell id="MhDVs0-bsi89xH2X399K-29" value="Row 3" style="text;html=1;strokeColor=none;fillColor=none;spacingLeft=4;spacingRight=4;whiteSpace=wrap;overflow=hidden;rotatable=0;points=[[0,0.5],[1,0.5]];portConstraint=eastwest;" vertex="1" parent="MhDVs0-bsi89xH2X399K-26">
          <mxGeometry y="78" width="160" height="26" as="geometry" />
        </mxCell>
        <mxCell id="MhDVs0-bsi89xH2X399K-30" value="Row 4" style="text;html=1;strokeColor=none;fillColor=none;spacingLeft=4;spacingRight=4;whiteSpace=wrap;overflow=hidden;rotatable=0;points=[[0,0.5],[1,0.5]];portConstraint=eastwest;" vertex="1" parent="MhDVs0-bsi89xH2X399K-26">
          <mxGeometry y="104" width="160" height="26" as="geometry" />
        </mxCell>
        <mxCell id="MhDVs0-bsi89xH2X399K-31" value="Function" style="swimlane;html=1;fontStyle=0;childLayout=stackLayout;horizontal=1;startSize=26;fillColor=#e0e0e0;horizontalStack=0;resizeParent=1;resizeLast=0;collapsible=1;marginBottom=0;swimlaneFillColor=#ffffff;align=center;rounded=1;shadow=0;comic=0;labelBackgroundColor=none;strokeWidth=1;fontFamily=Verdana;fontSize=12" vertex="1" parent="1">
          <mxGeometry x="780" y="192" width="160" height="84" as="geometry" />
        </mxCell>
        <mxCell id="MhDVs0-bsi89xH2X399K-32" value="Row 1" style="text;html=1;strokeColor=none;fillColor=none;spacingLeft=4;spacingRight=4;whiteSpace=wrap;overflow=hidden;rotatable=0;points=[[0,0.5],[1,0.5]];portConstraint=eastwest;" vertex="1" parent="MhDVs0-bsi89xH2X399K-31">
          <mxGeometry y="26" width="160" height="26" as="geometry" />
        </mxCell>
        <mxCell id="MhDVs0-bsi89xH2X399K-33" value="Row 2" style="text;html=1;strokeColor=none;fillColor=none;spacingLeft=4;spacingRight=4;whiteSpace=wrap;overflow=hidden;rotatable=0;points=[[0,0.5],[1,0.5]];portConstraint=eastwest;" vertex="1" parent="MhDVs0-bsi89xH2X399K-31">
          <mxGeometry y="52" width="160" height="26" as="geometry" />
        </mxCell>
        <mxCell id="MhDVs0-bsi89xH2X399K-34" value="Function" style="swimlane;html=1;fontStyle=0;childLayout=stackLayout;horizontal=1;startSize=26;fillColor=#e0e0e0;horizontalStack=0;resizeParent=1;resizeLast=0;collapsible=1;marginBottom=0;swimlaneFillColor=#ffffff;align=center;rounded=1;shadow=0;comic=0;labelBackgroundColor=none;strokeWidth=1;fontFamily=Verdana;fontSize=12" vertex="1" parent="1">
          <mxGeometry x="780" y="496" width="160" height="110" as="geometry" />
        </mxCell>
        <mxCell id="MhDVs0-bsi89xH2X399K-35" value="Row 1" style="text;html=1;strokeColor=none;fillColor=none;spacingLeft=4;spacingRight=4;whiteSpace=wrap;overflow=hidden;rotatable=0;points=[[0,0.5],[1,0.5]];portConstraint=eastwest;" vertex="1" parent="MhDVs0-bsi89xH2X399K-34">
          <mxGeometry y="26" width="160" height="26" as="geometry" />
        </mxCell>
        <mxCell id="MhDVs0-bsi89xH2X399K-36" value="Row 2" style="text;html=1;strokeColor=none;fillColor=none;spacingLeft=4;spacingRight=4;whiteSpace=wrap;overflow=hidden;rotatable=0;points=[[0,0.5],[1,0.5]];portConstraint=eastwest;" vertex="1" parent="MhDVs0-bsi89xH2X399K-34">
          <mxGeometry y="52" width="160" height="26" as="geometry" />
        </mxCell>
        <mxCell id="MhDVs0-bsi89xH2X399K-37" value="Row 3" style="text;html=1;strokeColor=none;fillColor=none;spacingLeft=4;spacingRight=4;whiteSpace=wrap;overflow=hidden;rotatable=0;points=[[0,0.5],[1,0.5]];portConstraint=eastwest;" vertex="1" parent="MhDVs0-bsi89xH2X399K-34">
          <mxGeometry y="78" width="160" height="26" as="geometry" />
        </mxCell>
        <mxCell id="MhDVs0-bsi89xH2X399K-38" value="Object" style="html=1;rounded=0;shadow=0;comic=0;labelBackgroundColor=none;strokeWidth=2;fontFamily=Verdana;fontSize=12;align=center;shape=mxgraph.ios7ui.horLines;" vertex="1" parent="1">
          <mxGeometry x="600" y="366" width="135" height="50" as="geometry" />
        </mxCell>
        <mxCell id="MhDVs0-bsi89xH2X399K-39" style="edgeStyle=none;html=1;labelBackgroundColor=none;startFill=0;startSize=8;endFill=1;endSize=8;fontFamily=Verdana;fontSize=12;rounded=0;" edge="1" parent="1" source="MhDVs0-bsi89xH2X399K-26" target="MhDVs0-bsi89xH2X399K-12">
          <mxGeometry relative="1" as="geometry" />
        </mxCell>
        <mxCell id="MhDVs0-bsi89xH2X399K-40" style="edgeStyle=none;html=1;labelBackgroundColor=none;startFill=0;startSize=8;endFill=1;endSize=8;fontFamily=Verdana;fontSize=12;rounded=0;" edge="1" parent="1" source="MhDVs0-bsi89xH2X399K-12" target="MhDVs0-bsi89xH2X399K-22">
          <mxGeometry relative="1" as="geometry" />
        </mxCell>
        <mxCell id="MhDVs0-bsi89xH2X399K-41" style="edgeStyle=orthogonalEdgeStyle;html=1;labelBackgroundColor=none;startFill=0;startSize=8;endFill=1;endSize=8;fontFamily=Verdana;fontSize=12;exitX=1;exitY=0.25;entryX=1;entryY=0.5;rounded=0;" edge="1" parent="1" source="MhDVs0-bsi89xH2X399K-26" target="MhDVs0-bsi89xH2X399K-25">
          <mxGeometry relative="1" as="geometry">
            <Array as="points">
              <mxPoint x="570" y="531" />
              <mxPoint x="570" y="283" />
            </Array>
          </mxGeometry>
        </mxCell>
        <mxCell id="MhDVs0-bsi89xH2X399K-42" value="" style="edgeStyle=orthogonalEdgeStyle;html=1;labelBackgroundColor=none;startFill=0;startSize=8;endFill=1;endSize=8;fontFamily=Verdana;fontSize=12;rounded=0;" edge="1" parent="1" source="MhDVs0-bsi89xH2X399K-38" target="MhDVs0-bsi89xH2X399K-35">
          <mxGeometry x="-0.1342" y="32" relative="1" as="geometry">
            <mxPoint as="offset" />
          </mxGeometry>
        </mxCell>
        <mxCell id="MhDVs0-bsi89xH2X399K-43" style="edgeStyle=orthogonalEdgeStyle;html=1;labelBackgroundColor=none;startFill=0;startSize=8;endFill=1;endSize=8;fontFamily=Verdana;fontSize=12;rounded=0;" edge="1" parent="1" source="MhDVs0-bsi89xH2X399K-22" target="MhDVs0-bsi89xH2X399K-38">
          <mxGeometry relative="1" as="geometry">
            <Array as="points">
              <mxPoint x="668" y="266" />
            </Array>
          </mxGeometry>
        </mxCell>
        <mxCell id="MhDVs0-bsi89xH2X399K-44" style="edgeStyle=orthogonalEdgeStyle;html=1;labelBackgroundColor=none;startFill=0;startSize=8;endFill=1;endSize=8;fontFamily=Verdana;fontSize=12;rounded=0;" edge="1" parent="1" source="MhDVs0-bsi89xH2X399K-13" target="MhDVs0-bsi89xH2X399K-22">
          <mxGeometry relative="1" as="geometry" />
        </mxCell>
        <mxCell id="MhDVs0-bsi89xH2X399K-45" style="edgeStyle=orthogonalEdgeStyle;html=1;labelBackgroundColor=none;startFill=0;startSize=8;endFill=1;endSize=8;fontFamily=Verdana;fontSize=12;rounded=0;" edge="1" parent="1" source="MhDVs0-bsi89xH2X399K-34" target="MhDVs0-bsi89xH2X399K-31">
          <mxGeometry relative="1" as="geometry" />
        </mxCell>
        <mxCell id="MhDVs0-bsi89xH2X399K-46" style="edgeStyle=orthogonalEdgeStyle;html=1;labelBackgroundColor=none;startFill=0;startSize=8;endFill=1;endSize=8;fontFamily=Verdana;fontSize=12;rounded=0;" edge="1" parent="1" source="MhDVs0-bsi89xH2X399K-17" target="MhDVs0-bsi89xH2X399K-31">
          <mxGeometry relative="1" as="geometry" />
        </mxCell>
        <mxCell id="MhDVs0-bsi89xH2X399K-47" style="edgeStyle=orthogonalEdgeStyle;html=1;entryX=0;entryY=0.5;labelBackgroundColor=none;startFill=0;startSize=8;endFill=1;endSize=8;fontFamily=Verdana;fontSize=12;exitX=1;exitY=0.5;rounded=0;" edge="1" parent="1" source="MhDVs0-bsi89xH2X399K-15" target="MhDVs0-bsi89xH2X399K-19">
          <mxGeometry relative="1" as="geometry">
            <Array as="points" />
          </mxGeometry>
        </mxCell>
        <mxCell id="MhDVs0-bsi89xH2X399K-48" style="edgeStyle=orthogonalEdgeStyle;html=1;exitX=0;exitY=0.5;entryX=1;entryY=0.5;labelBackgroundColor=none;startFill=0;startSize=8;endFill=1;endSize=8;fontFamily=Verdana;fontSize=12;rounded=0;" edge="1" parent="1" source="MhDVs0-bsi89xH2X399K-18" target="MhDVs0-bsi89xH2X399K-14">
          <mxGeometry relative="1" as="geometry" />
        </mxCell>
        <mxCell id="MhDVs0-bsi89xH2X399K-49" style="edgeStyle=orthogonalEdgeStyle;html=1;exitX=1;exitY=0.5;entryX=0;entryY=0.5;labelBackgroundColor=none;startFill=0;startSize=8;endFill=1;endSize=8;fontFamily=Verdana;fontSize=12;rounded=0;" edge="1" parent="1" target="MhDVs0-bsi89xH2X399K-32">
          <mxGeometry relative="1" as="geometry">
            <mxPoint x="660" y="21" as="sourcePoint" />
          </mxGeometry>
        </mxCell>
        <mxCell id="MhDVs0-bsi89xH2X399K-50" style="edgeStyle=orthogonalEdgeStyle;html=1;exitX=1;exitY=0.5;entryX=0;entryY=0.5;labelBackgroundColor=none;startFill=0;startSize=8;endFill=1;endSize=8;fontFamily=Verdana;fontSize=12;rounded=0;" edge="1" parent="1" source="MhDVs0-bsi89xH2X399K-24" target="MhDVs0-bsi89xH2X399K-33">
          <mxGeometry relative="1" as="geometry">
            <Array as="points" />
          </mxGeometry>
        </mxCell>
        <mxCell id="MhDVs0-bsi89xH2X399K-51" style="edgeStyle=orthogonalEdgeStyle;html=1;labelBackgroundColor=none;startFill=0;startSize=8;endFill=1;endSize=8;fontFamily=Verdana;fontSize=12;rounded=0;" edge="1" parent="1" source="MhDVs0-bsi89xH2X399K-33">
          <mxGeometry relative="1" as="geometry">
            <mxPoint x="1100" y="257" as="targetPoint" />
          </mxGeometry>
        </mxCell>
        <mxCell id="MhDVs0-bsi89xH2X399K-52" style="edgeStyle=orthogonalEdgeStyle;html=1;exitX=1;exitY=0.5;labelBackgroundColor=none;startFill=0;startSize=8;endFill=1;endSize=8;fontFamily=Verdana;fontSize=12;rounded=0;" edge="1" parent="1" source="MhDVs0-bsi89xH2X399K-35">
          <mxGeometry relative="1" as="geometry">
            <mxPoint x="1100" y="535" as="targetPoint" />
          </mxGeometry>
        </mxCell>
        <mxCell id="MhDVs0-bsi89xH2X399K-53" style="edgeStyle=orthogonalEdgeStyle;html=1;labelBackgroundColor=none;startFill=0;startSize=8;endFill=1;endSize=8;fontFamily=Verdana;fontSize=12;entryX=1;entryY=0.5;rounded=0;" edge="1" parent="1" target="MhDVs0-bsi89xH2X399K-36">
          <mxGeometry relative="1" as="geometry">
            <mxPoint x="1110" y="545" as="targetPoint" />
            <mxPoint x="1100" y="561" as="sourcePoint" />
            <Array as="points">
              <mxPoint x="1100" y="561" />
            </Array>
          </mxGeometry>
        </mxCell>
        <mxCell id="MhDVs0-bsi89xH2X399K-54" style="edgeStyle=orthogonalEdgeStyle;html=1;labelBackgroundColor=none;startFill=0;startSize=8;endFill=1;endSize=8;fontFamily=Verdana;fontSize=12;entryX=1;entryY=0.5;rounded=0;" edge="1" parent="1" target="MhDVs0-bsi89xH2X399K-37">
          <mxGeometry relative="1" as="geometry">
            <mxPoint x="950.1904761904761" y="571.0952380952381" as="targetPoint" />
            <mxPoint x="1100" y="587" as="sourcePoint" />
            <Array as="points">
              <mxPoint x="1020" y="587" />
              <mxPoint x="1020" y="587" />
            </Array>
          </mxGeometry>
        </mxCell>
        <mxCell id="MhDVs0-bsi89xH2X399K-55" style="edgeStyle=orthogonalEdgeStyle;html=1;exitX=1;exitY=0.5;labelBackgroundColor=none;startFill=0;startSize=8;endFill=1;endSize=8;fontFamily=Verdana;fontSize=12;rounded=0;" edge="1" parent="1" source="MhDVs0-bsi89xH2X399K-18">
          <mxGeometry relative="1" as="geometry">
            <mxPoint x="1100" y="39" as="targetPoint" />
          </mxGeometry>
        </mxCell>
        <mxCell id="MhDVs0-bsi89xH2X399K-56" style="edgeStyle=orthogonalEdgeStyle;html=1;exitX=1;exitY=0.5;labelBackgroundColor=none;startFill=0;startSize=8;endFill=1;endSize=8;fontFamily=Verdana;fontSize=12;rounded=0;" edge="1" parent="1" source="MhDVs0-bsi89xH2X399K-19">
          <mxGeometry relative="1" as="geometry">
            <mxPoint x="1100" y="65" as="targetPoint" />
          </mxGeometry>
        </mxCell>
        <mxCell id="MhDVs0-bsi89xH2X399K-57" style="edgeStyle=orthogonalEdgeStyle;html=1;exitX=1;exitY=0.5;labelBackgroundColor=none;startFill=0;startSize=8;endFill=1;endSize=8;fontFamily=Verdana;fontSize=12;rounded=0;" edge="1" parent="1" source="MhDVs0-bsi89xH2X399K-20">
          <mxGeometry relative="1" as="geometry">
            <mxPoint x="1100" y="91" as="targetPoint" />
            <Array as="points" />
          </mxGeometry>
        </mxCell>
        <mxCell id="MhDVs0-bsi89xH2X399K-58" style="edgeStyle=elbowEdgeStyle;html=1;labelBackgroundColor=none;startFill=0;startSize=8;endFill=1;endSize=8;fontFamily=Verdana;fontSize=12;elbow=vertical;entryX=1.011;entryY=0.152;entryPerimeter=0;rounded=0;" edge="1" parent="1" target="MhDVs0-bsi89xH2X399K-17">
          <mxGeometry relative="1" as="geometry">
            <mxPoint x="960" y="15" as="targetPoint" />
            <mxPoint x="1100" y="20" as="sourcePoint" />
            <Array as="points">
              <mxPoint x="1030" y="20" />
            </Array>
          </mxGeometry>
        </mxCell>
      </root>
    </mxGraphModel>
  </diagram>
</mxfile>
